<svg xmlns="http://www.w3.org/2000/svg" version="1.1" xmlns:xlink="http://www.w3.org/1999/xlink" xmlns:svgjs="http://svgjs.dev/svgjs" width="2000" height="2250" viewBox="0 0 2000 2250"><g transform="matrix(1,0,0,1,0.00014687500004129106,0)"><svg viewBox="0 0 320 360" data-background-color="#ffffff" preserveAspectRatio="xMidYMid meet" height="2250" width="2000" xmlns="http://www.w3.org/2000/svg" xmlns:xlink="http://www.w3.org/1999/xlink"><g id="tight-bounds" transform="matrix(1,0,0,1,0.000023499999997511622,0)"><svg viewBox="0 0 320 360" height="360" width="320"><g><svg></svg></g><g><svg viewBox="0 0 320 360" height="360" width="320"><g><path transform="translate(-74.99272,-51.79039) scale(4.65793,4.65793)" d="M20.6 59.9l0.8 1-0.4-1.3c-0.1-0.6-0.8 0.1-0.4 0.3M21.5 59.3c0.3 0.5 0.6 1 0.6 1.5 0 0.7 0.6 1 1.1 1.2-0.7-0.8-1.1-3-1.7-2.7M59.9 16.9c1.7 0 3.3-0.2 5.1 0.2 4.4 1.1 8.1 3.3 10.6 6.4l7 11.2c0.3 2.8 0.9 5.9 0.8 9.3 0.7 0 0.6-1 1.4-1.2-0.8 2-1.2 4.5-1.4 7.4-0.5-1.6 0-4 0.1-5.3-0.7 1.1-1.1 0.3-1.1-0.2 0.1-0.8-0.3-0.7-0.6-1-1.1-1-1.8-2.1-2.6-3.8 0.5-1.3 0.6-3.2-1-4.2-0.5-0.3-1.1-0.8-1.4-1.6-0.4-1.1-1.1-2.4-0.9-4.1 0.1-0.5-1.5 1.1-2.4 0.4-3.9-2.7-7.8-5.8-12.5-8.4-2.5 0-4.3-0.9-5.2-2-0.8-1-0.2-2.3 1-2.4 0.7 0 1.5-0.2 2.1 0.2 0.1-0.4 0.5-0.9 1-0.9M50 14.6l0.2 0.1c1 0.2 1.5 1.6 2.6 1.1 0 0.7 0.1 1.4-0.1 1.9-0.3 0.8-1.2 0.8-1.9 0.8-6.7-0.4-10.6 2.4-14.7 4.8-1.1 0.7-2.3 1.2-3.2 2.1-4.3 4-9 7.7-10.1 15.1l-0.9 8.2c-0.1 0.9-1.1 1.8-0.9 2.9l0.7 4.9c-0.7-0.7-1.1 0.2-0.9 0.6 0.1 0.3 0.5 1.3 1.1 0.4 0.8 1.5 1.6 4.4 2.7 5.7 3.4 4 7.8 7.6 11.4 11.2 0.9-0.2 1.6-0.2 1.8-0.8 0.3 0.6-0.3 1.2-0.8 1.3 1.6 1 3.4 1.9 5.8 2.1 3.1 0.2 6 0.7 8.7 1.4 1.4-0.4 2.8-0.6 4.3-0.7 0.5 0 0.8-0.8 1.4-1l0.1-1c0.6 0.9 0.5-0.3 0.1-0.9 0.7 0.6 0.9 1.1 1.2 1.5 0-0.3 0.8-1.4 0.8-0.1l0.2-1.3c0.3-0.2 0.4 1.1 0.7 0.2 0.3-0.9 0.9-0.2 1.5-0.5-0.2 0.4-0.1 1.2 0.6 0.7l0.8-0.7c0.5 1.2 1.3 0.7 1.7 0.5 4.4-2.8 8.8-6.1 13-9.4l-0.1 1.3 0.5-1.6c0.5 0.5 0.9 0.1 1.1-0.2 0.6-1 1.4-2 2.7-2.9-1.6 4.3-3.5 7.7-5.9 10.5l-1 1.2c0 0.7-0.2 1.6-1 1.7-0.4 0.1-1.2-0.2-1.8 0.4-0.3 0.4 0.7 1.2-0.1 0.6-0.7-0.5-1.4 0-2.2 0.2-0.6 0.2 0.4 0.8 0.6 1.2 0.2 0.4 0.4 0.8 0.3 1.3l-1.1-1.2c-1.3 0.7-2.1 2-3.2 3-0.5 0.4-0.3 1.1-0.3 1.7-0.7 0-1.5-0.2-1.9 0.2-0.3 0.4-0.2 1-0.2 1.6-1-0.1-1.1-1.6-2-1.3-0.9 0.2-1.9 0.3-2.7 0.8 0.6 1.2-1 0.5-0.8 0.7-1.5-0.9-2.8-1.6-4.4-1-3.4-1.1-7.6-0.6-10.7-0.2 0-0.5 0.1-1-0.1-1.1-0.2 0.5-0.8 0.3-0.7 0.3-1.9-1.3-3.8-2.1-5.8-3.2-1.8 0.2-3.5-0.7-4-1.2-1.4-1.3-3-0.6-4.3-0.9-2.8-0.7-3.8-3.6-4.1-5.6-0.2-1-1-1.4-1.3-1.3-1.3-4.2-3.3-8-4.9-11.9-0.4-1-0.3-2-0.3-3.1 0.5 0.2 1 0.1 0.9-0.6-0.5-3.3-1.7-5.8-3-8.2 0.7-3.4 0.8-7.4 2.4-10.4 1.4-2.7 4-4.1 5.8-6.4 0.6-0.8 0.6-1.9 1.2-2.6 2-2 4-4.1 6.2-5.9 1-0.8 2.2 0 3.7-0.3 0.5-1.8 2.5-3.4 4.4-2.9 0.8 0.2 2.4-1.9 2.9-2.1 0.8-0.3 0.4 0.8 0.4 1.5 1.9-1.5 4.5-2.3 6.9-3.2" fill="#a61713" fill-rule="nonzero" stroke="none" stroke-width="1" stroke-linecap="butt" stroke-linejoin="miter" stroke-miterlimit="10" stroke-dasharray="" stroke-dashoffset="0" font-family="none" font-weight="none" font-size="none" text-anchor="none" style="mix-blend-mode: normal" data-fill-palette-color="tertiary"></path></g><g transform="matrix(1,0,0,1,64,112.10385669381412)"><svg viewBox="0 0 192 135.79228661237175" height="135.79228661237175" width="192"><g><svg viewBox="0 0 192 135.79228661237175" height="135.79228661237175" width="192"><g><svg viewBox="0 0 192 135.79228661237175" height="135.79228661237175" width="192"><g transform="matrix(1,0,0,1,0,81.1510116128984)"><svg viewBox="0 0 192 54.64127499947334" height="54.64127499947334" width="192"><g id="textblocktransform"><svg viewBox="0 0 192 54.64127499947334" height="54.64127499947334" width="192" id="textblock"><g><svg viewBox="0 0 192 29.899888765294772" height="29.899888765294772" width="192"><g transform="matrix(1,0,0,1,0,0)"><svg width="192" viewBox="4.5 -28 179.79 28" height="29.899888765294772" data-palette-color="#a61713"><path d="M25.95 0L21.15 0 13.85-10.3 8.55-10.3 8.55 0 4.5 0 4.5-28 11.95-28Q14.5-28 16.6-27.5 18.7-27 20.2-25.9 21.7-24.8 22.55-23.13 23.4-21.45 23.4-19.15L23.4-19.15Q23.4-15.65 21.85-13.75 20.3-11.85 17.9-11L17.9-11 25.95 0ZM12.05-24.9L8.55-24.9 8.55-13.4 11.85-13.4Q15.6-13.4 17.43-14.73 19.25-16.05 19.25-19.15L19.25-19.15Q19.25-22.1 17.43-23.5 15.6-24.9 12.05-24.9L12.05-24.9ZM53.05 0L48.6 0 46.25-6.75 33.75-6.75 31.35 0 27.2 0 37.7-28 42.6-28 53.05 0ZM40.1-24.7L34.85-9.95 45.15-9.95 40.1-24.7ZM75.25-28L79.4-28 79.4 0 75.25 0 75.25-12.55 62.15-12.55 62.15 0 58.05 0 58.05-28 62.15-28 62.15-15.9 75.25-15.9 75.25-28ZM104.24 0L99.94 0 92.24-22 92.24 0 88.39 0 88.39-28 94.14-28 102.19-4.6 109.59-28 115.34-28 115.34 0 111.34 0 111.34-22 104.24 0ZM146.19 0L141.74 0 139.39-6.75 126.89-6.75 124.49 0 120.34 0 130.84-28 135.74-28 146.19 0ZM133.24-24.7L127.99-9.95 138.29-9.95 133.24-24.7ZM167.44-28L171.19-28 171.19 0 165.39 0 155.04-23.4 155.04 0 151.19 0 151.19-28 157.09-28 167.44-4.85 167.44-28ZM180.19-28L184.29-28 184.29 0 180.19 0 180.19-28Z" opacity="1" transform="matrix(1,0,0,1,0,0)" fill="#a61713" class="wordmark-text-0" data-fill-palette-color="primary" id="text-0"></path></svg></g></svg></g><g transform="matrix(1,0,0,1,14.400000000000006,36.9585349054505)"><svg viewBox="0 0 163.2 17.682740094022833" height="17.682740094022833" width="163.2"><g transform="matrix(1,0,0,1,0,0)"><svg width="163.2" viewBox="1.95 -35.08 327.15000000000003 35.449999999999996" height="17.682740094022833" data-palette-color="#a61713"><path d="M20.8-13.33L20.8-13.33Q21.02-12.7 21.2-12.06 21.39-11.43 21.56-10.77L21.56-10.77Q22.17-12.13 22.88-13.31L22.88-13.31 35.86-31.37Q36.3-32.06 36.72-32.24 37.13-32.42 37.92-32.42L37.92-32.42 42.63-32.42 38.65 0 33.2 0 35.91-20.48Q35.99-21.19 36.15-22.08 36.3-22.97 36.5-23.88L36.5-23.88 23.63-5.2Q22.83-3.88 21.31-3.88L21.31-3.88 20.46-3.88Q19.73-3.88 19.2-4.21 18.68-4.54 18.41-5.2L18.41-5.2 10.18-23.75Q10.18-22.9 10.14-22.07 10.11-21.24 10.06-20.58L10.06-20.58 7.4 0 1.95 0 5.91-32.42 10.55-32.42Q10.96-32.42 11.24-32.39 11.52-32.35 11.74-32.24 11.96-32.13 12.16-31.95 12.35-31.76 12.57-31.45L12.57-31.45 20.8-13.33ZM55.52-4.37L55.52-4.37Q57.15-4.37 58.44-5.18 59.74-5.98 60.65-7.34 61.57-8.69 62.06-10.49 62.55-12.28 62.55-14.26L62.55-14.26Q62.55-17.21 61.41-18.55 60.28-19.9 57.96-19.9L57.96-19.9Q56.35-19.9 55.04-19.1 53.73-18.31 52.82-16.97 51.9-15.63 51.41-13.82 50.93-12.01 50.93-10.01L50.93-10.01Q50.93-7.1 52.07-5.74 53.22-4.37 55.52-4.37ZM55.03 0.37L55.03 0.37Q52.81 0.37 50.91-0.32 49.02-1 47.65-2.32 46.29-3.64 45.51-5.57 44.72-7.5 44.72-9.99L44.72-9.99Q44.72-13.13 45.81-15.81 46.9-18.48 48.76-20.45 50.63-22.41 53.12-23.52 55.61-24.63 58.44-24.63L58.44-24.63Q60.67-24.63 62.55-23.95 64.43-23.27 65.81-21.95 67.19-20.63 67.97-18.7 68.75-16.77 68.75-14.28L68.75-14.28Q68.75-11.18 67.67-8.51 66.6-5.83 64.73-3.86 62.86-1.88 60.36-0.76 57.86 0.37 55.03 0.37ZM77.66 0L71.48 0 75.7-35.08 81.9-35.08 80.1-20.29Q81.88-22.49 83.97-23.55 86.05-24.61 88.25-24.61L88.25-24.61Q89.81-24.61 91.07-24 92.33-23.39 93.15-22.22 93.96-21.04 94.29-19.34 94.62-17.63 94.36-15.43L94.36-15.43 92.52 0 86.35 0 88.15-15.43Q88.45-17.68 87.91-18.64 87.37-19.6 85.91-19.6L85.91-19.6Q85-19.6 84.04-19.1 83.08-18.6 82.17-17.69 81.27-16.77 80.49-15.49 79.71-14.21 79.17-12.62L79.17-12.62 77.66 0ZM121.18-23.51L118.3 0 115.01 0Q113.81 0 113.37-0.6 112.93-1.2 112.98-2.05L112.98-2.05 113.18-5.13Q111.47-2.59 109.28-1.11 107.1 0.37 104.46 0.37L104.46 0.37Q102.97 0.37 101.66-0.17 100.36-0.71 99.39-1.81 98.43-2.91 97.88-4.55 97.33-6.2 97.33-8.42L97.33-8.42Q97.33-10.6 97.91-12.63 98.48-14.67 99.55-16.48 100.63-18.29 102.14-19.78 103.65-21.26 105.53-22.34 107.41-23.41 109.6-24.01 111.78-24.61 114.2-24.61L114.2-24.61Q115.96-24.61 117.72-24.37 119.47-24.12 121.18-23.51L121.18-23.51ZM106.85-4.69L106.85-4.69Q107.95-4.69 108.99-5.4 110.03-6.1 110.94-7.34 111.86-8.57 112.63-10.22 113.4-11.87 113.93-13.75L113.93-13.75 114.71-20.19Q114.37-20.21 114.03-20.23 113.69-20.24 113.37-20.24L113.37-20.24Q111.27-20.24 109.47-19.37 107.66-18.51 106.34-17.04 105.02-15.58 104.26-13.64 103.51-11.69 103.51-9.52L103.51-9.52Q103.51-6.96 104.4-5.82 105.29-4.69 106.85-4.69ZM130.24 0L124.16 0 127.09-24.27 130.24-24.27Q131.22-24.27 131.78-23.79 132.34-23.32 132.31-22.27L132.31-22.27 132.19-19.7Q133.95-22.19 136-23.4 138.05-24.61 140.32-24.61L140.32-24.61Q142.74-24.61 144.13-23.11 145.52-21.61 145.74-18.77L145.74-18.77Q147.55-21.78 149.77-23.19 151.99-24.61 154.63-24.61L154.63-24.61Q156.29-24.61 157.53-24 158.78-23.39 159.57-22.22 160.37-21.04 160.65-19.34 160.93-17.63 160.66-15.43L160.66-15.43 158.85 0 152.75 0 154.56-15.43Q154.85-17.68 154.37-18.62 153.9-19.56 152.43-19.56L152.43-19.56Q151.48-19.56 150.54-19.08 149.6-18.6 148.77-17.7 147.94-16.8 147.23-15.49 146.52-14.18 146.01-12.55L146.01-12.55 146.01-12.52 144.57 0 138.44 0 140.25-15.43Q140.54-17.65 140.1-18.6 139.66-19.56 138.2-19.56L138.2-19.56Q137.17-19.56 136.21-19.04 135.24-18.53 134.41-17.57 133.58-16.6 132.88-15.25 132.17-13.89 131.66-12.21L131.66-12.21 130.24 0ZM186.54-18.41L186.54-18.41Q186.54-16.8 185.82-15.47 185.09-14.14 183.26-13.07 181.43-12.01 178.27-11.25 175.11-10.5 170.25-10.06L170.25-10.06Q170.25-7.18 171.61-5.8 172.96-4.42 175.74-4.42L175.74-4.42Q177.5-4.42 178.64-4.81 179.77-5.2 180.58-5.68 181.38-6.15 182.01-6.54 182.63-6.93 183.39-6.93L183.39-6.93Q184.05-6.93 184.51-6.4L184.51-6.4 186.12-4.49Q184.75-3.22 183.46-2.31 182.17-1.39 180.79-0.79 179.41-0.2 177.88 0.09 176.35 0.37 174.57 0.37L174.57 0.37Q172.23 0.37 170.31-0.37 168.4-1.1 167.04-2.45 165.69-3.81 164.94-5.7 164.2-7.59 164.2-9.94L164.2-9.94Q164.2-12.79 165.19-15.44 166.17-18.09 167.99-20.12 169.81-22.14 172.39-23.36 174.96-24.58 178.16-24.58L178.16-24.58Q180.26-24.58 181.84-24.04 183.41-23.49 184.45-22.6 185.49-21.7 186.01-20.61 186.54-19.51 186.54-18.41ZM177.87-20.29L177.87-20.29Q176.55-20.29 175.41-19.84 174.28-19.38 173.38-18.57 172.47-17.75 171.81-16.59 171.15-15.43 170.76-14.04L170.76-14.04Q174.04-14.43 176.04-14.88 178.04-15.33 179.14-15.86 180.24-16.38 180.6-16.98 180.97-17.58 180.97-18.26L180.97-18.26Q180.97-18.63 180.8-18.98 180.63-19.34 180.25-19.63 179.87-19.92 179.28-20.1 178.7-20.29 177.87-20.29ZM209.43 0L206.14 0Q204.97 0 204.53-0.6 204.09-1.2 204.14-2.05L204.14-2.05 204.28-5.13Q202.5-2.59 200.27-1.11 198.03 0.37 195.52 0.37L195.52 0.37Q193.93 0.37 192.65-0.18 191.37-0.73 190.46-1.86 189.56-2.98 189.06-4.71 188.56-6.45 188.56-8.79L188.56-8.79Q188.56-10.86 189-12.84 189.44-14.82 190.23-16.58 191.03-18.33 192.15-19.81 193.27-21.29 194.61-22.35 195.96-23.41 197.51-24.01 199.06-24.61 200.72-24.61L200.72-24.61Q202.4-24.61 203.76-24.04 205.11-23.46 206.14-22.46L206.14-22.46 207.7-35.08 213.78-35.08 209.43 0ZM197.93-4.49L197.93-4.49Q198.91-4.49 199.92-5.15 200.94-5.81 201.88-6.97 202.82-8.13 203.61-9.68 204.4-11.23 204.97-13.01L204.97-13.01 205.65-18.48Q204.82-19.26 203.78-19.59 202.74-19.92 201.72-19.92L201.72-19.92Q200.13-19.92 198.85-18.99 197.57-18.07 196.64-16.58 195.71-15.09 195.21-13.21 194.71-11.33 194.71-9.4L194.71-9.4Q194.71-6.88 195.57-5.69 196.42-4.49 197.93-4.49ZM236.97-12.6L234.65-12.6 233.09 0 226.96 0 230.91-32.42 240.53-32.42Q243.46-32.42 245.56-31.81 247.66-31.2 249-30.11 250.35-29.03 250.98-27.53 251.62-26.03 251.62-24.24L251.62-24.24Q251.62-22.39 251.08-20.75 250.54-19.12 249.53-17.76 248.52-16.41 247.05-15.39 245.59-14.38 243.73-13.79L243.73-13.79Q244.83-13.16 245.46-11.91L245.46-11.91 251.44 0 245.9 0Q245.12 0 244.58-0.33 244.05-0.66 243.78-1.22L243.78-1.22 238.94-11.47Q238.68-12.06 238.25-12.33 237.82-12.6 236.97-12.6L236.97-12.6ZM239.97-27.69L236.5-27.69 235.19-16.97 238.6-16.97Q240.39-16.97 241.68-17.47 242.97-17.97 243.8-18.82 244.63-19.68 245.04-20.84 245.44-22 245.44-23.32L245.44-23.32Q245.44-25.39 244.11-26.54 242.78-27.69 239.97-27.69L239.97-27.69ZM276.93-18.41L276.93-18.41Q276.93-16.8 276.21-15.47 275.49-14.14 273.66-13.07 271.83-12.01 268.67-11.25 265.5-10.5 260.65-10.06L260.65-10.06Q260.65-7.18 262-5.8 263.36-4.42 266.14-4.42L266.14-4.42Q267.9-4.42 269.03-4.81 270.17-5.2 270.97-5.68 271.78-6.15 272.4-6.54 273.02-6.93 273.78-6.93L273.78-6.93Q274.44-6.93 274.9-6.4L274.9-6.4 276.52-4.49Q275.15-3.22 273.85-2.31 272.56-1.39 271.18-0.79 269.8-0.2 268.28 0.09 266.75 0.37 264.97 0.37L264.97 0.37Q262.62 0.37 260.71-0.37 258.79-1.1 257.44-2.45 256.08-3.81 255.34-5.7 254.59-7.59 254.59-9.94L254.59-9.94Q254.59-12.79 255.58-15.44 256.57-18.09 258.39-20.12 260.21-22.14 262.78-23.36 265.36-24.58 268.56-24.58L268.56-24.58Q270.66-24.58 272.23-24.04 273.81-23.49 274.84-22.6 275.88-21.7 276.41-20.61 276.93-19.51 276.93-18.41ZM268.26-20.29L268.26-20.29Q266.95-20.29 265.81-19.84 264.67-19.38 263.77-18.57 262.87-17.75 262.21-16.59 261.55-15.43 261.16-14.04L261.16-14.04Q264.43-14.43 266.43-14.88 268.43-15.33 269.53-15.86 270.63-16.38 271-16.98 271.36-17.58 271.36-18.26L271.36-18.26Q271.36-18.63 271.19-18.98 271.02-19.34 270.64-19.63 270.27-19.92 269.68-20.1 269.09-20.29 268.26-20.29ZM299.83 0L296.53 0Q295.36 0 294.92-0.6 294.48-1.2 294.53-2.05L294.53-2.05 294.68-5.13Q292.89-2.59 290.66-1.11 288.43 0.37 285.91 0.37L285.91 0.37Q284.33 0.37 283.04-0.18 281.76-0.73 280.86-1.86 279.96-2.98 279.45-4.71 278.95-6.45 278.95-8.79L278.95-8.79Q278.95-10.86 279.39-12.84 279.83-14.82 280.63-16.58 281.42-18.33 282.54-19.81 283.67-21.29 285.01-22.35 286.35-23.41 287.9-24.01 289.45-24.61 291.11-24.61L291.11-24.61Q292.8-24.61 294.15-24.04 295.51-23.46 296.53-22.46L296.53-22.46 298.1-35.08 304.17-35.08 299.83 0ZM288.33-4.49L288.33-4.49Q289.31-4.49 290.32-5.15 291.33-5.81 292.27-6.97 293.21-8.13 294.01-9.68 294.8-11.23 295.36-13.01L295.36-13.01 296.04-18.48Q295.21-19.26 294.18-19.59 293.14-19.92 292.11-19.92L292.11-19.92Q290.53-19.92 289.25-18.99 287.96-18.07 287.04-16.58 286.11-15.09 285.61-13.21 285.11-11.33 285.11-9.4L285.11-9.4Q285.11-6.88 285.96-5.69 286.82-4.49 288.33-4.49ZM329.1-23.51L326.22 0 322.92 0Q321.73 0 321.29-0.6 320.85-1.2 320.9-2.05L320.9-2.05 321.09-5.13Q319.38-2.59 317.2-1.11 315.01 0.37 312.37 0.37L312.37 0.37Q310.89 0.37 309.58-0.17 308.27-0.71 307.31-1.81 306.34-2.91 305.8-4.55 305.25-6.2 305.25-8.42L305.25-8.42Q305.25-10.6 305.82-12.63 306.39-14.67 307.47-16.48 308.54-18.29 310.06-19.78 311.57-21.26 313.45-22.34 315.33-23.41 317.51-24.01 319.7-24.61 322.12-24.61L322.12-24.61Q323.87-24.61 325.63-24.37 327.39-24.12 329.1-23.51L329.1-23.51ZM314.77-4.69L314.77-4.69Q315.87-4.69 316.9-5.4 317.94-6.1 318.86-7.34 319.77-8.57 320.54-10.22 321.31-11.87 321.85-13.75L321.85-13.75 322.63-20.19Q322.29-20.21 321.95-20.23 321.6-20.24 321.29-20.24L321.29-20.24Q319.19-20.24 317.38-19.37 315.57-18.51 314.25-17.04 312.94-15.58 312.18-13.64 311.42-11.69 311.42-9.52L311.42-9.52Q311.42-6.96 312.31-5.82 313.2-4.69 314.77-4.69Z" opacity="1" transform="matrix(1,0,0,1,0,0)" fill="#a61713" class="slogan-text-1" data-fill-palette-color="secondary" id="text-1"></path></svg></g></svg></g></svg></g></svg></g><g transform="matrix(1,0,0,1,36.672000000000004,0)"><svg viewBox="0 0 118.65599999999999 74.09236547274267" height="74.09236547274267" width="118.65599999999999"><g><svg xmlns="http://www.w3.org/2000/svg" xml:space="preserve" viewBox="-2.435429092741941e-7 18.788999751993785 100.00000121676715 62.4430002480062" id="icon-0" width="118.65599999999999" height="74.09236547274267" x="0" y="0" class="icon-icon-0" data-fill-palette-color="accent"><path d="M97.938 68.771h-6.316V20.81a2.02 2.02 0 0 0-2.021-2.021H10.399a2.02 2.02 0 0 0-2.021 2.021v47.961H2.062A2.06 2.06 0 0 0 0 70.832v2.084q0 0.154 0.022 0.306c0.527 3.521 3.348 7.447 7.159 7.922q0.126 0.016 0.252 0.017l84.51 0.071h0.003c4.404 0 7.604-4.197 8.041-8.085q0.013-0.113 0.013-0.23v-2.084a2.06 2.06 0 0 0-2.062-2.062M12.42 22.831h75.16V68.77H59.985c-0.133 0-0.262 0.016-0.386 0.04H41.16a2 2 0 0 0-0.396-0.04H12.42z m79.528 54.276l-84.362-0.071c-1.461-0.261-3.024-2.16-3.434-4.143h35.086c0.702 1.246 2.017 2.085 3.519 2.085H57.99c1.502 0 2.816-0.839 3.52-2.085h34.35c-0.322 2.033-2.006 4.214-3.912 4.214M38.84 37.498a2.083 2.083 0 0 0-2.947 0l-8.689 8.689a2.085 2.085 0 0 0 0 2.948l8.689 8.688a2.08 2.08 0 0 0 2.948 0 2.083 2.083 0 0 0 0-2.947l-7.216-7.215 7.216-7.216a2.084 2.084 0 0 0-0.001-2.947m20.521 20.325a2.081 2.081 0 0 0 2.948 0l8.688-8.688a2.085 2.085 0 0 0 0-2.948l-8.688-8.689a2.083 2.083 0 1 0-2.947 2.947l7.215 7.216-7.215 7.215a2.083 2.083 0 0 0-0.001 2.947m-17.568 4.452a2.085 2.085 0 0 0 2.797-0.932l12.506-25.011a2.083 2.083 0 0 0-0.933-2.796 2.087 2.087 0 0 0-2.797 0.932L40.861 59.479a2.083 2.083 0 0 0 0.932 2.796" fill="#ff683c" data-fill-palette-color="accent"></path></svg></g></svg></g><g></g></svg></g></svg></g></svg></g></svg></g><defs></defs></svg><rect width="320" height="360" fill="none" stroke="none" visibility="hidden"></rect></g></svg></g></svg>